# xmcd CD database file
# Copyright (C) 1993-1996 Ti Kan
#
# Track frame offsets:
#  150
#  20695
#  41847
#  61552
#  83817
#  102975
#  119415
#  144887
#  161480
#  182555
#
# Disc length: 2702 seconds
#
# Revision: 1
# Processed by: cddbd v1.5.2PL0 Copyright (c) Steve Scherf et al.
# Submitted via: Advanced CD Ripper Pro 2.0
#
DISCID=7a0a8c0a
DTITLE=SELDA BAÐCAN - GÜVERCÝNLERÝ DE VURDULAR
DYEAR=2008
DGENRE=
TTITLE0=GÜVERCÝNLERÝ DE VURDULAR
TTITLE1=SARI GELÝN
TTITLE2=SEVGÝLERDE
TTITLE3=MAGUSA LÝMANI
TTITLE4=BÝR YETÝM TÜRKÜSÜ
TTITLE5=HALKIM
TTITLE6=SANA GELDÝM CAN
TTITLE7=YAN YANA OLUNCA GÜZEL
TTITLE8=HENE
TTITLE9=YARA MIN E
EXTD=
EXTT0=
EXTT1=
EXTT2=
EXTT3=
EXTT4=
EXTT5=
EXTT6=
EXTT7=
EXTT8=
EXTT9=
PLAYORDER=
